# xmcd
#
# Track frame offsets: 
#        150
#        17361
#        31924
#        47655
#        65359
#        85015
#        103963
#        118964
#        139009
#        155615
#        173909
#        190253
#
# Disc length: 2743 seconds
#
# Revision: 2
# Processed by: cddbd v1.5.2PL0 Copyright (c) Steve Scherf et al.
# Submitted via: ExactAudioCopyFreeDBPlugin 1.0
#
DISCID=9b0ab50c
DTITLE=Frances Black - Don't Get Me Wrong
DYEAR=1998
DGENRE=Celtic
TTITLE0=Don't Get Me Wrong
TTITLE1=New York City
TTITLE2=Love Song
TTITLE3=Lost And Found
TTITLE4=A Kiss Doesn't Make It Right
TTITLE5=Haven For My Heart
TTITLE6=Love Me
TTITLE7=That's How You Know It's Love
TTITLE8=Everytime I Hear Your Name (I Cry)
TTITLE9=Let Me Down Gently
TTITLE10=Will You Love Me Tomorrow
TTITLE11=Armed With A Broken Heart
EXTD=
EXTT0=
EXTT1=
EXTT2=
EXTT3=
EXTT4=
EXTT5=
EXTT6=
EXTT7=
EXTT8=
EXTT9=
EXTT10=
EXTT11=
PLAYORDER=
